<?xml version="1.0" encoding="UTF-8" ?>
<!DOCTYPE svg PUBLIC "-//W3C//DTD SVG 1.1//EN" "http://www.w3.org/Graphics/SVG/1.1/DTD/svg11.dtd">
<svg width="392pt" height="392pt" viewBox="0 0 392 392" version="1.1" xmlns="http://www.w3.org/2000/svg">
<g id="#f4f4f4ff">
<path fill="#f4f4f4" opacity="1.00" d=" M 0.00 0.00 L 392.00 0.00 L 392.00 392.00 L 0.00 392.00 L 0.00 0.00 M 215.33 102.41 C 191.61 106.94 167.68 110.32 144.02 115.15 C 132.29 116.76 120.71 119.25 109.04 121.21 C 101.47 122.80 93.73 123.50 86.23 125.39 C 89.40 143.95 92.70 162.48 95.96 181.03 C 99.21 198.68 101.85 216.44 105.49 234.02 C 107.16 244.29 108.39 254.63 110.45 264.84 C 116.12 264.03 121.76 263.02 127.45 262.32 C 127.35 266.14 127.34 269.96 127.39 273.79 C 132.56 274.44 137.78 274.47 142.98 274.35 C 187.32 274.33 231.66 274.35 276.00 274.34 C 283.18 274.25 290.39 274.72 297.55 273.89 C 297.21 230.49 297.59 187.08 297.36 143.68 C 285.58 143.14 273.79 143.42 262.00 143.48 C 258.56 127.72 256.62 111.68 253.68 95.82 C 240.83 97.58 228.20 100.75 215.33 102.41 Z" />
<path fill="#f4f4f4" opacity="1.00" d=" M 212.00 116.88 C 222.17 115.37 232.15 112.68 242.44 112.00 C 244.50 122.50 246.48 133.04 247.66 143.69 C 241.78 143.40 235.89 143.33 230.01 143.38 C 202.67 143.39 175.33 143.38 147.99 143.38 C 141.09 143.33 134.18 143.33 127.29 143.94 C 127.33 174.62 127.27 205.31 127.35 235.99 C 127.32 239.67 127.70 243.38 127.10 247.04 C 126.28 249.88 120.97 249.15 121.30 246.00 C 118.91 229.58 115.21 213.38 112.77 196.97 C 111.39 188.20 109.12 179.60 107.87 170.81 C 106.29 159.24 103.82 147.82 102.00 136.29 C 125.15 132.08 148.42 128.50 171.49 123.88 C 185.09 122.15 198.54 119.46 212.00 116.88 Z" />
<path fill="#f4f4f4" opacity="1.00" d=" M 141.21 254.02 C 141.48 221.82 140.97 189.61 141.47 157.41 C 183.65 157.44 225.83 157.43 268.02 157.42 C 272.69 157.49 277.43 156.98 282.06 157.87 C 282.34 158.13 282.89 158.67 283.17 158.93 C 283.78 163.26 283.37 167.64 283.42 171.99 C 283.44 197.66 283.39 223.33 283.45 249.00 C 283.44 252.68 283.17 256.37 282.75 260.03 C 279.85 260.28 276.95 260.51 274.05 260.55 C 234.36 260.52 194.67 260.54 154.97 260.54 C 150.92 260.50 146.84 260.87 142.81 260.33 C 140.71 258.99 141.46 256.11 141.21 254.02 M 150.89 166.80 C 150.12 168.79 150.22 170.95 150.19 173.05 C 150.43 196.15 150.14 219.25 150.24 242.35 C 152.95 241.16 155.62 239.84 158.02 238.08 C 163.84 233.83 170.01 230.08 175.93 225.98 C 177.47 225.09 179.40 223.44 181.15 224.85 C 186.64 228.27 191.80 232.25 197.75 234.88 C 201.48 230.59 204.90 226.04 208.91 222.01 C 215.96 215.02 222.10 207.21 229.01 200.09 C 232.65 196.39 235.29 191.69 239.53 188.61 C 242.14 186.68 245.36 188.87 247.20 190.85 C 255.88 200.80 264.24 211.08 273.57 220.44 C 274.02 217.99 274.47 215.53 274.50 213.03 C 274.38 200.02 274.37 187.01 274.50 174.00 C 274.45 172.06 274.48 170.08 273.93 168.21 C 273.11 166.32 270.75 166.59 269.07 166.44 C 234.72 166.57 200.37 166.47 166.02 166.50 C 160.98 166.57 155.91 166.16 150.89 166.80 Z" />
<path fill="#f4f4f4" opacity="1.00" d=" M 175.32 175.28 C 182.17 173.47 189.57 178.96 190.07 185.95 C 191.57 194.03 182.60 201.63 174.84 199.21 C 169.76 197.59 165.14 192.58 165.81 186.95 C 165.79 181.49 169.94 176.33 175.32 175.28 Z" />
</g>
<g id="#dadadaff">
<path fill="#dadada" opacity="1.00" d=" M 215.33 102.41 C 228.20 100.75 240.83 97.58 253.68 95.82 C 256.62 111.68 258.56 127.72 262.00 143.48 C 273.79 143.42 285.58 143.14 297.36 143.68 C 297.59 187.08 297.21 230.49 297.55 273.89 C 290.39 274.72 283.18 274.25 276.00 274.34 C 231.66 274.35 187.32 274.33 142.98 274.35 C 137.78 274.47 132.56 274.44 127.39 273.79 C 127.34 269.96 127.35 266.14 127.45 262.32 C 121.76 263.02 116.12 264.03 110.45 264.84 C 108.39 254.63 107.16 244.29 105.49 234.02 C 101.85 216.44 99.21 198.68 95.96 181.03 C 92.70 162.48 89.40 143.95 86.23 125.39 C 93.73 123.50 101.47 122.80 109.04 121.21 C 120.71 119.25 132.29 116.76 144.02 115.15 C 167.68 110.32 191.61 106.94 215.33 102.41 M 212.00 116.88 C 198.54 119.46 185.09 122.15 171.49 123.88 C 148.42 128.50 125.15 132.08 102.00 136.29 C 103.82 147.82 106.29 159.24 107.87 170.81 C 109.12 179.60 111.39 188.20 112.77 196.97 C 115.21 213.38 118.91 229.58 121.30 246.00 C 120.97 249.15 126.28 249.88 127.10 247.04 C 127.70 243.38 127.32 239.67 127.35 235.99 C 127.27 205.31 127.33 174.62 127.29 143.94 C 134.18 143.33 141.09 143.33 147.99 143.38 C 175.33 143.38 202.67 143.39 230.01 143.38 C 235.89 143.33 241.78 143.40 247.66 143.69 C 246.48 133.04 244.50 122.50 242.44 112.00 C 232.15 112.68 222.17 115.37 212.00 116.88 M 141.21 254.02 C 141.46 256.11 140.71 258.99 142.81 260.33 C 146.84 260.87 150.92 260.50 154.97 260.54 C 194.67 260.54 234.36 260.52 274.05 260.55 C 276.95 260.51 279.85 260.28 282.75 260.03 C 283.17 256.37 283.44 252.68 283.45 249.00 C 283.39 223.33 283.44 197.66 283.42 171.99 C 283.37 167.64 283.78 163.26 283.17 158.93 C 282.89 158.67 282.34 158.13 282.06 157.87 C 277.43 156.98 272.69 157.49 268.02 157.42 C 225.83 157.43 183.65 157.44 141.47 157.41 C 140.97 189.61 141.48 221.82 141.21 254.02 Z" />
<path fill="#dadada" opacity="1.00" d=" M 150.89 166.80 C 155.91 166.16 160.98 166.57 166.02 166.50 C 200.37 166.47 234.72 166.57 269.07 166.44 C 270.75 166.59 273.11 166.32 273.93 168.21 C 274.48 170.08 274.45 172.06 274.50 174.00 C 274.37 187.01 274.38 200.02 274.50 213.03 C 274.47 215.53 274.02 217.99 273.57 220.44 C 264.24 211.08 255.88 200.80 247.20 190.85 C 245.36 188.87 242.14 186.68 239.53 188.61 C 235.29 191.69 232.65 196.39 229.01 200.09 C 222.10 207.21 215.96 215.02 208.91 222.01 C 204.90 226.04 201.48 230.59 197.75 234.88 C 191.80 232.25 186.64 228.27 181.15 224.85 C 179.40 223.44 177.47 225.09 175.93 225.98 C 170.01 230.08 163.84 233.83 158.02 238.08 C 155.62 239.84 152.95 241.16 150.24 242.35 C 150.14 219.25 150.43 196.15 150.19 173.05 C 150.22 170.95 150.12 168.79 150.89 166.80 M 175.32 175.28 C 169.94 176.33 165.79 181.49 165.81 186.95 C 165.14 192.58 169.76 197.59 174.84 199.21 C 182.60 201.63 191.57 194.03 190.07 185.95 C 189.57 178.96 182.17 173.47 175.32 175.28 Z" />
</g>
</svg>
