<?xml version="1.0" encoding="UTF-8" ?>
<!DOCTYPE svg PUBLIC "-//W3C//DTD SVG 1.1//EN" "http://www.w3.org/Graphics/SVG/1.1/DTD/svg11.dtd">
<svg width="84pt" height="72pt" viewBox="0 0 84 72" version="1.1" xmlns="http://www.w3.org/2000/svg">
<g id="#ffffffff">
</g>
<g id="#00a652ff">
<path fill="#00a652" opacity="1.00" d=" M 39.46 1.62 C 47.70 -0.18 56.17 6.66 56.39 15.01 C 56.90 22.88 49.97 30.38 42.00 30.05 C 34.77 30.32 28.22 24.16 27.64 17.03 C 26.88 9.91 32.32 2.62 39.46 1.62 Z" />
<path fill="#00a652" opacity="1.00" d=" M 13.41 15.32 C 21.54 11.99 30.41 21.76 26.69 29.58 C 24.22 36.01 15.33 38.36 10.02 33.94 C 3.53 29.20 5.37 17.31 13.41 15.32 Z" />
<path fill="#00a652" opacity="1.00" d=" M 64.34 15.16 C 70.54 13.13 78.23 18.24 77.84 25.01 C 78.56 30.74 73.63 36.06 67.96 36.19 C 62.48 36.74 57.35 32.33 56.59 26.99 C 55.84 21.86 59.37 16.56 64.34 15.16 Z" />
<path fill="#00a652" opacity="1.00" d=" M 27.50 35.51 C 32.05 32.51 37.81 32.84 43.03 32.72 C 47.99 32.92 53.70 32.81 57.59 36.41 C 61.30 39.84 61.40 45.30 61.51 49.98 C 61.37 57.32 61.93 64.77 60.38 72.00 L 23.29 72.00 C 22.52 64.00 22.39 55.96 22.55 47.93 C 22.66 43.43 23.47 38.22 27.50 35.51 Z" />
<path fill="#00a652" opacity="1.00" d=" M 7.46 40.54 C 10.99 39.25 14.81 39.33 18.51 39.04 C 17.94 50.02 18.34 61.01 18.24 72.00 L 6.35 72.00 C 4.12 70.54 2.06 68.85 0.00 67.17 L 0.00 48.52 C 1.87 45.41 4.01 42.07 7.46 40.54 Z" />
<path fill="#00a652" opacity="1.00" d=" M 65.49 39.03 C 70.24 39.54 75.81 38.96 79.59 42.44 C 83.36 45.83 83.03 51.36 83.26 55.98 C 83.26 61.62 84.06 69.01 78.01 72.00 L 65.71 72.00 C 65.72 61.01 66.05 50.01 65.49 39.03 Z" />
</g>
</svg>
