<?xml version="1.0" encoding="UTF-8" ?>
<!DOCTYPE svg PUBLIC "-//W3C//DTD SVG 1.1//EN" "http://www.w3.org/Graphics/SVG/1.1/DTD/svg11.dtd">
<svg width="84pt" height="76pt" viewBox="0 0 84 76" version="1.1" xmlns="http://www.w3.org/2000/svg">
<g id="#ffffffff">
</g>
<g id="#00a652ff">
<path fill="#00a652" opacity="1.00" d=" M 20.23 0.00 L 76.89 0.00 C 79.79 1.27 82.93 3.48 82.86 7.02 C 83.46 16.33 82.94 25.67 83.11 35.00 C 82.99 40.14 83.58 45.38 82.41 50.44 C 81.06 54.16 76.65 55.40 73.06 55.36 C 56.69 55.33 40.31 55.39 23.94 55.34 C 19.24 55.56 14.30 51.98 14.41 46.99 C 14.31 34.03 14.29 21.05 14.42 8.09 C 14.26 4.32 17.41 1.86 20.23 0.00 M 21.74 6.86 C 21.03 17.89 21.46 28.99 21.52 40.05 C 26.12 37.62 28.55 32.48 33.21 30.20 C 37.19 28.71 39.80 32.45 42.55 34.55 C 43.53 35.64 44.79 34.23 45.48 33.54 C 49.44 29.13 52.82 24.20 56.98 19.98 C 58.82 17.84 62.42 17.55 64.50 19.48 C 68.91 23.16 71.62 28.48 76.25 31.93 C 76.75 23.89 76.28 15.82 76.53 7.78 C 73.98 6.11 70.86 6.76 68.00 6.64 C 52.58 6.82 37.15 6.38 21.74 6.86 Z" />
<path fill="#00a652" opacity="1.00" d=" M 29.50 10.57 C 34.02 8.91 39.20 13.26 38.50 17.99 C 38.15 23.74 29.84 26.36 26.41 21.62 C 22.87 18.18 25.06 11.97 29.50 10.57 Z" />
<path fill="#00a652" opacity="1.00" d=" M 0.00 52.64 C 4.10 43.75 5.37 33.90 9.29 24.95 C 9.52 32.65 9.20 40.36 9.38 48.06 C 9.30 54.64 15.46 60.42 21.96 60.36 C 38.63 60.58 55.31 60.30 71.98 60.48 C 70.57 66.26 69.62 74.02 62.92 76.00 L 60.45 76.00 C 43.04 71.24 25.57 66.70 8.14 62.00 C 4.79 61.29 2.27 58.87 0.00 56.46 L 0.00 52.64 Z" />
</g>
</svg>
