<?xml version="1.0" encoding="UTF-8" ?>
<!DOCTYPE svg PUBLIC "-//W3C//DTD SVG 1.1//EN" "http://www.w3.org/Graphics/SVG/1.1/DTD/svg11.dtd">
<svg width="84pt" height="53pt" viewBox="0 0 84 53" version="1.1" xmlns="http://www.w3.org/2000/svg">
<g id="#ffffffff">
</g>
<g id="#00a652ff">
<path fill="#00a652" opacity="1.00" d=" M 33.49 0.00 L 76.82 0.00 C 79.68 0.72 82.95 2.56 82.87 5.94 C 83.34 14.97 83.15 24.04 82.98 33.08 C 83.28 36.56 80.33 39.51 76.97 39.75 C 72.01 40.07 67.03 39.77 62.07 39.87 C 61.05 43.49 59.96 47.88 56.04 49.37 C 53.12 49.69 50.16 49.75 47.34 50.69 C 47.88 50.96 48.42 51.22 48.96 51.49 C 45.73 51.78 42.33 51.79 39.88 49.33 C 36.37 49.89 32.18 50.72 29.80 47.34 C 20.00 49.06 9.93 50.05 0.00 49.37 L 0.00 45.76 L 0.01 47.08 C 7.82 45.41 15.88 45.97 23.80 45.31 C 28.29 44.90 32.01 42.12 34.92 38.85 C 39.26 33.46 47.71 33.62 51.36 27.47 C 53.14 25.10 51.24 20.61 47.97 21.76 C 43.49 22.89 39.67 25.78 35.18 26.97 C 35.70 26.96 36.22 26.94 36.74 26.93 C 32.38 28.37 28.40 30.78 23.96 32.00 C 23.94 30.87 23.93 29.74 23.92 28.61 C 24.65 28.36 26.12 27.84 26.85 27.58 C 26.84 20.42 27.08 13.25 26.69 6.10 C 21.52 8.09 18.03 12.64 13.41 15.52 C 9.02 18.30 5.29 22.57 0.00 23.57 L 0.00 20.58 C 7.79 16.11 14.76 10.32 21.73 4.69 C 23.51 3.15 26.01 3.62 28.17 3.42 C 29.80 2.08 31.45 0.68 33.49 0.00 M 30.33 8.18 C 30.33 10.39 30.33 12.60 30.32 14.81 C 46.92 14.83 63.51 14.81 80.11 14.82 C 80.10 12.60 80.10 10.38 80.09 8.16 C 63.50 8.17 46.92 8.15 30.33 8.18 M 37.90 40.52 C 36.46 42.00 34.98 43.43 33.45 44.82 C 33.47 45.27 33.49 46.15 33.50 46.60 C 35.81 46.75 37.91 45.92 39.49 44.24 C 39.55 42.76 39.63 41.28 39.70 39.80 C 39.25 39.98 38.35 40.34 37.90 40.52 M 43.30 39.92 C 42.92 42.41 42.64 44.91 42.56 47.43 C 44.37 48.33 46.32 48.25 48.17 47.53 C 48.44 46.97 48.98 45.84 49.26 45.27 C 49.30 43.46 49.35 41.65 49.41 39.85 C 47.37 39.87 45.33 39.88 43.30 39.92 M 52.66 39.77 C 52.50 42.02 52.41 44.27 52.45 46.52 C 56.37 47.03 57.91 43.26 58.70 40.19 C 56.69 40.01 54.68 39.87 52.66 39.77 Z" />
</g>
</svg>
