<?xml version="1.0" encoding="UTF-8" ?>
<!DOCTYPE svg PUBLIC "-//W3C//DTD SVG 1.1//EN" "http://www.w3.org/Graphics/SVG/1.1/DTD/svg11.dtd">
<svg width="84pt" height="84pt" viewBox="0 0 84 84" version="1.1" xmlns="http://www.w3.org/2000/svg">
<g id="#ffffffff">
</g>
<g id="#00a652ff">
<path fill="#00a652" opacity="1.00" d=" M 0.00 1.81 C 3.63 1.21 7.30 0.80 10.98 0.83 C 24.65 0.85 38.32 0.86 51.99 0.83 C 56.54 0.87 61.27 0.38 65.59 2.14 C 65.74 8.66 65.55 15.19 65.74 21.71 C 71.37 21.88 77.02 21.53 82.63 22.12 C 83.49 29.39 83.00 36.71 83.11 44.00 C 82.95 54.03 83.45 64.08 82.85 74.10 C 82.91 79.30 78.16 82.61 73.69 84.00 L 10.25 84.00 C 5.23 82.62 1.56 78.51 0.00 73.64 L 0.00 1.81 M 21.56 16.61 C 21.73 18.21 20.76 20.47 22.61 21.37 C 25.67 22.14 28.88 21.68 32.01 21.79 C 35.81 21.65 39.69 22.17 43.44 21.40 C 45.30 20.46 44.38 18.15 44.58 16.51 C 40.80 15.49 36.87 15.80 33.00 15.77 C 29.18 15.82 25.26 15.42 21.56 16.61 M 65.63 28.15 C 65.64 41.79 65.69 55.43 65.62 69.07 C 65.56 71.79 65.49 75.16 68.04 76.87 C 71.63 79.89 77.92 76.81 77.52 72.09 C 77.52 57.34 77.61 42.59 77.47 27.85 C 73.52 27.75 69.55 27.59 65.63 28.15 M 12.51 31.92 C 12.49 32.75 12.44 34.40 12.41 35.23 C 13.83 35.96 15.33 36.60 16.97 36.45 C 25.64 36.46 34.32 36.41 42.99 36.45 C 46.57 36.44 50.22 36.76 53.67 35.63 C 53.60 34.33 53.71 32.99 53.30 31.74 C 51.82 30.52 49.85 30.67 48.06 30.63 C 39.37 30.66 30.69 30.68 22.00 30.64 C 18.80 30.70 15.38 30.15 12.51 31.92 M 12.48 43.90 C 12.46 44.72 12.44 46.36 12.42 47.18 C 13.86 47.85 15.34 48.55 16.98 48.43 C 25.32 48.48 33.66 48.40 42.00 48.44 C 45.88 48.39 49.87 48.85 53.62 47.57 C 53.56 46.29 53.81 44.95 53.34 43.73 C 52.04 42.17 49.86 42.51 48.07 42.41 C 37.70 42.47 27.34 42.42 16.98 42.43 C 15.31 42.26 13.84 43.04 12.48 43.90 M 12.24 55.94 C 12.40 57.73 12.62 60.20 15.03 60.08 C 23.34 60.45 31.68 60.10 40.00 60.22 C 44.54 60.13 49.15 60.65 53.60 59.51 C 53.56 58.24 53.77 56.94 53.38 55.71 C 52.25 53.91 49.87 54.38 48.07 54.21 C 37.70 54.25 27.33 54.19 16.96 54.23 C 15.17 54.05 13.65 54.98 12.24 55.94 M 15.03 72.04 C 23.00 72.50 31.01 72.08 39.00 72.22 C 43.84 72.08 48.80 72.78 53.54 71.41 C 53.37 69.79 54.32 67.49 52.43 66.60 C 50.35 66.03 48.16 66.25 46.03 66.20 C 35.73 66.33 25.42 66.07 15.13 66.31 C 11.76 66.31 11.34 72.20 15.03 72.04 Z" />
</g>
</svg>
