<?xml version="1.0" encoding="UTF-8" ?>
<!DOCTYPE svg PUBLIC "-//W3C//DTD SVG 1.1//EN" "http://www.w3.org/Graphics/SVG/1.1/DTD/svg11.dtd">
<svg width="84pt" height="84pt" viewBox="0 0 84 84" version="1.1" xmlns="http://www.w3.org/2000/svg">
<g id="#ffffffff">
</g>
<g id="#00a652ff">
<path fill="#00a652" opacity="1.00" d=" M 0.00 4.24 C 2.45 1.99 5.53 0.53 8.93 0.84 C 27.30 0.95 45.68 0.64 64.05 0.99 C 70.04 0.35 72.12 8.81 68.39 12.43 C 64.76 16.11 61.05 19.71 57.25 23.21 C 55.17 21.53 53.02 19.41 50.10 19.78 C 39.73 19.83 29.35 19.65 18.98 19.87 C 15.66 19.47 13.02 23.83 15.25 26.47 C 16.37 28.53 18.94 28.54 20.98 28.65 C 31.09 28.79 41.20 28.43 51.31 28.81 C 48.98 31.50 46.93 34.91 43.50 36.26 C 35.35 36.90 27.14 36.01 18.98 36.59 C 16.98 36.74 15.10 38.14 14.52 40.08 C 13.83 42.77 16.30 45.53 18.98 45.49 C 24.26 45.74 29.55 45.50 34.84 45.53 C 32.60 48.05 30.60 50.78 28.22 53.16 C 24.65 54.11 20.83 53.07 17.24 54.01 C 13.98 55.07 13.49 59.95 16.40 61.72 C 19.25 62.81 22.41 62.38 25.40 62.50 C 26.02 65.94 26.35 70.33 30.03 71.93 C 34.43 73.55 39.07 71.45 43.35 70.35 C 47.94 69.19 50.99 65.36 54.20 62.18 C 59.26 57.15 64.12 51.89 69.47 47.15 C 70.90 54.69 69.98 62.38 70.26 70.00 C 70.16 74.77 71.06 80.45 67.08 84.00 L 3.84 84.00 C 2.33 82.53 0.98 80.90 0.00 79.03 L 0.00 4.24 Z" />
<path fill="#00a652" opacity="1.00" d=" M 68.35 19.86 C 70.33 17.61 72.70 15.06 76.00 15.32 C 79.70 14.96 83.50 18.07 82.84 21.98 C 83.40 25.43 81.30 28.61 78.25 30.06 C 74.94 26.67 71.54 23.37 68.35 19.86 Z" />
<path fill="#00a652" opacity="1.00" d=" M 63.63 24.59 C 64.63 23.39 65.73 24.87 66.47 25.52 C 69.32 28.27 72.08 31.11 74.79 34.00 C 66.01 43.15 56.86 51.93 47.99 60.99 C 43.90 65.61 37.22 67.00 31.31 66.74 C 31.90 60.98 32.85 54.48 37.51 50.51 C 46.30 41.95 54.77 33.07 63.63 24.59 Z" />
</g>
</svg>
