<?xml version="1.0" encoding="UTF-8" ?>
<!DOCTYPE svg PUBLIC "-//W3C//DTD SVG 1.1//EN" "http://www.w3.org/Graphics/SVG/1.1/DTD/svg11.dtd">
<svg width="84pt" height="62pt" viewBox="0 0 84 62" version="1.1" xmlns="http://www.w3.org/2000/svg">
<g id="#feffffff">
</g>
<g id="#00a652ff">
<path fill="#00a652" opacity="1.00" d=" M 0.00 3.99 C 1.86 2.15 4.13 0.35 6.93 0.65 C 25.63 0.62 44.34 0.72 63.04 0.61 C 65.39 0.68 68.03 0.43 70.00 1.99 C 71.87 3.31 71.46 5.90 71.90 7.87 C 53.61 8.72 35.27 7.89 16.96 8.28 C 11.86 8.22 7.50 12.86 7.71 17.93 C 7.55 28.06 7.79 38.19 7.64 48.31 C 4.81 48.45 2.18 47.52 0.00 45.73 L 0.00 3.99 Z" />
<path fill="#00a652" opacity="1.00" d=" M 12.64 15.04 C 14.04 13.63 15.91 12.55 17.96 12.67 C 37.66 12.63 57.36 12.68 77.06 12.64 C 79.07 12.46 80.90 13.35 82.61 14.28 C 82.77 16.30 82.90 18.33 83.02 20.35 C 59.44 20.53 35.86 20.44 12.28 20.40 C 12.33 18.61 12.20 16.79 12.64 15.04 Z" />
<path fill="#00a652" opacity="1.00" d=" M 12.25 25.21 C 26.81 24.40 41.42 25.07 56.00 24.85 C 64.97 24.98 73.95 24.57 82.92 25.08 C 82.90 26.88 82.88 28.68 82.83 30.48 C 59.33 30.39 35.83 30.45 12.33 30.45 C 12.29 28.71 12.26 26.96 12.25 25.21 Z" />
<path fill="#00a652" opacity="1.00" d=" M 12.25 34.84 C 35.78 34.46 59.32 34.68 82.85 34.73 C 82.97 42.35 83.51 50.04 82.60 57.63 C 81.82 60.44 78.32 60.11 76.04 60.24 C 57.35 60.22 38.66 60.21 19.97 60.24 C 17.33 60.23 13.98 60.28 12.65 57.49 C 10.70 50.06 12.89 42.39 12.25 34.84 M 60.38 40.47 C 54.43 42.18 53.19 51.31 58.54 54.42 C 61.72 56.87 65.83 54.67 69.43 55.45 C 72.95 56.31 76.90 54.65 78.35 51.24 C 81.60 46.18 75.94 38.98 70.25 40.43 C 66.97 41.09 63.66 40.01 60.38 40.47 Z" />
<path fill="#00a652" opacity="1.00" d=" M 60.50 45.41 C 62.45 43.32 64.99 45.70 67.04 46.37 C 68.74 45.70 70.44 45.01 72.14 44.33 C 75.42 45.72 75.43 50.20 72.17 51.60 C 70.47 50.97 68.81 50.19 67.03 49.84 C 65.27 50.30 63.60 51.03 61.90 51.66 C 59.62 50.54 58.26 47.21 60.50 45.41 Z" />
</g>
</svg>
