<?xml version="1.0" encoding="UTF-8" ?>
<!DOCTYPE svg PUBLIC "-//W3C//DTD SVG 1.1//EN" "http://www.w3.org/Graphics/SVG/1.1/DTD/svg11.dtd">
<svg width="84pt" height="80pt" viewBox="0 0 84 80" version="1.1" xmlns="http://www.w3.org/2000/svg">
<g id="#ffffffff">
</g>
<g id="#00a652ff">
<path fill="#00a652" opacity="1.00" d=" M 22.85 3.86 C 24.94 1.00 28.67 0.43 31.98 0.39 C 37.74 0.35 43.54 0.18 49.26 1.02 C 46.65 3.13 43.92 5.28 42.32 8.31 C 38.65 14.86 34.83 21.33 31.40 28.01 C 25.38 25.46 19.89 21.83 14.12 18.78 C 16.88 13.73 19.26 8.39 22.85 3.86 Z" />
<path fill="#00a652" opacity="1.00" d=" M 43.16 12.95 C 44.35 6.91 50.43 1.07 56.95 2.61 C 61.19 4.97 62.77 10.02 65.88 13.54 C 67.80 12.93 69.74 12.36 71.70 11.87 C 68.60 16.91 66.37 22.46 62.95 27.30 C 57.18 27.67 51.35 27.25 45.55 27.23 C 46.61 26.07 47.75 24.99 48.71 23.74 C 47.32 19.92 44.39 16.84 43.16 12.95 Z" />
<path fill="#00a652" opacity="1.00" d=" M 1.01 26.26 C 7.17 26.22 13.34 26.14 19.51 26.34 C 22.27 31.77 25.03 37.21 28.19 42.42 C 26.51 41.80 24.84 41.13 23.10 40.70 C 20.32 43.97 18.41 47.87 16.07 51.45 C 12.69 51.34 9.16 51.31 6.02 49.86 C 3.58 48.61 1.79 46.44 0.00 44.42 L 0.00 40.76 C 2.48 37.62 4.42 34.11 5.96 30.43 C 4.31 29.04 2.65 27.66 1.01 26.26 Z" />
<path fill="#00a652" opacity="1.00" d=" M 57.57 36.75 C 62.82 32.96 68.37 29.60 74.00 26.40 C 77.78 33.04 84.77 39.44 82.55 47.83 C 79.76 53.75 76.20 59.31 72.82 64.92 C 71.80 61.52 70.86 58.04 68.89 55.03 C 65.08 48.96 61.32 42.86 57.57 36.75 Z" />
<path fill="#00a652" opacity="1.00" d=" M 42.83 65.01 C 45.79 59.56 48.27 53.76 52.20 48.92 C 52.31 50.67 52.41 52.43 52.51 54.18 C 56.91 54.24 61.30 54.19 65.70 54.30 C 67.48 57.65 70.02 60.99 69.69 65.00 C 70.03 68.29 68.06 71.95 64.71 72.74 C 60.98 73.62 57.10 73.42 53.32 74.03 C 52.96 75.76 52.61 77.49 52.25 79.22 C 48.45 74.97 45.80 69.84 42.83 65.01 Z" />
<path fill="#00a652" opacity="1.00" d=" M 2.08 50.23 C 5.13 51.96 8.35 53.77 11.96 53.73 C 19.84 53.96 27.72 53.51 35.59 53.97 C 35.50 60.36 35.52 66.76 35.58 73.15 C 29.28 73.19 22.74 74.20 16.62 72.34 C 13.64 71.62 12.12 68.76 10.80 66.28 C 8.02 60.86 5.09 55.52 2.08 50.23 Z" />
</g>
</svg>
