<?xml version="1.0" encoding="UTF-8" ?>
<!DOCTYPE svg PUBLIC "-//W3C//DTD SVG 1.1//EN" "http://www.w3.org/Graphics/SVG/1.1/DTD/svg11.dtd">
<svg width="200pt" height="201pt" viewBox="0 0 200 201" version="1.1" xmlns="http://www.w3.org/2000/svg">
<g id="#000000ff">
</g>
<g id="#ffffffff">
<path fill="#ffffff" opacity="1.00" d=" M 85.31 1.73 C 93.48 9.20 101.00 17.34 108.93 25.06 C 114.13 30.37 119.57 35.44 124.59 40.92 C 115.05 50.92 105.06 60.51 95.35 70.35 C 92.03 73.67 88.81 77.10 85.24 80.15 C 85.15 70.14 85.47 60.13 85.10 50.13 C 70.20 50.13 55.37 55.38 43.83 64.80 C 28.85 76.85 19.51 95.74 19.52 115.01 C 19.21 126.77 22.36 138.54 28.26 148.70 C 36.88 163.72 51.66 175.09 68.44 179.42 C 82.77 183.32 98.18 181.68 111.81 176.01 C 116.35 180.59 121.17 184.93 125.34 189.85 C 107.28 199.90 85.40 202.77 65.34 197.81 C 35.99 191.02 11.45 167.16 3.81 138.02 C -2.08 116.96 0.86 93.65 11.59 74.61 C 26.06 48.55 55.06 31.21 84.98 31.62 C 85.66 21.67 84.99 11.69 85.31 1.73 Z" />
<path fill="#ffffff" opacity="1.00" d=" M 118.14 74.15 C 124.82 67.58 131.26 60.78 138.10 54.39 C 153.43 69.23 168.29 84.54 183.44 99.56 C 188.47 104.72 193.78 109.62 198.62 114.96 C 183.75 130.31 168.41 145.20 153.37 160.37 C 148.24 165.38 143.34 170.64 138.04 175.48 C 117.72 155.45 97.52 135.27 77.47 114.97 C 90.81 101.15 104.62 87.79 118.14 74.15 M 103.93 114.98 C 115.21 126.46 126.62 137.81 138.06 149.13 C 149.67 137.96 160.93 126.42 172.28 114.99 C 161.05 103.41 149.61 92.00 138.06 80.73 C 126.60 92.06 115.15 103.41 103.93 114.98 Z" />
</g>
</svg>
