<?xml version="1.0" encoding="UTF-8" ?>
<!DOCTYPE svg PUBLIC "-//W3C//DTD SVG 1.1//EN" "http://www.w3.org/Graphics/SVG/1.1/DTD/svg11.dtd">
<svg width="200pt" height="201pt" viewBox="0 0 200 201" version="1.1" xmlns="http://www.w3.org/2000/svg">
<g id="#000000ff">
</g>
<g id="#ffffffff">
<path fill="#ffffff" opacity="1.00" d=" M 100.06 16.06 C 104.97 11.31 109.55 6.21 114.70 1.71 C 115.00 11.66 114.38 21.64 115.01 31.59 C 130.68 31.60 146.34 36.01 159.59 44.41 C 175.10 54.17 187.44 69.04 193.80 86.27 C 200.68 104.46 200.97 125.07 194.53 143.43 C 187.89 162.95 173.66 179.66 155.67 189.65 C 131.02 203.50 99.32 203.72 74.63 189.85 C 78.86 184.96 83.61 180.57 88.18 176.01 C 101.08 181.32 115.50 183.18 129.18 180.00 C 145.96 176.33 161.02 165.69 170.23 151.21 C 176.91 140.77 180.61 128.41 180.50 116.00 C 180.69 99.98 174.54 84.02 163.84 72.12 C 151.64 58.26 133.35 50.11 114.89 50.13 C 114.55 60.14 114.86 70.16 114.76 80.17 C 109.64 75.66 105.03 70.61 100.15 65.85 C 91.93 57.51 83.46 49.42 75.40 40.92 C 83.42 32.44 91.88 24.38 100.06 16.06 Z" />
<path fill="#ffffff" opacity="1.00" d=" M 55.52 60.52 C 57.59 58.41 59.71 56.36 61.89 54.38 C 77.90 69.94 93.51 85.91 109.37 101.63 C 113.75 106.08 118.33 110.34 122.53 114.97 C 102.47 135.26 82.29 155.46 61.95 175.48 C 45.81 159.82 30.09 143.71 14.11 127.88 C 9.86 123.58 5.44 119.44 1.37 114.96 C 19.20 96.60 37.54 78.73 55.52 60.52 M 27.71 114.99 C 39.06 126.43 50.34 137.95 61.93 149.14 C 73.38 137.82 84.78 126.45 96.08 114.97 C 84.85 103.42 73.40 92.05 61.93 80.73 C 50.40 92.01 38.95 103.40 27.71 114.99 Z" />
</g>
</svg>
