<?xml version="1.0" encoding="UTF-8" ?>
<!DOCTYPE svg PUBLIC "-//W3C//DTD SVG 1.1//EN" "http://www.w3.org/Graphics/SVG/1.1/DTD/svg11.dtd">
<svg width="84pt" height="84pt" viewBox="0 0 84 84" version="1.1" xmlns="http://www.w3.org/2000/svg">
<g id="#ffffffff">
</g>
<g id="#00a652ff">
<path fill="#00a652" opacity="1.00" d=" M 43.40 2.24 C 45.12 0.67 47.17 2.32 48.48 3.57 C 53.54 8.49 58.43 13.59 63.49 18.51 C 65.39 20.45 67.60 22.30 68.51 24.96 C 66.46 28.39 63.53 31.47 59.93 33.28 C 57.73 32.73 56.22 30.86 54.63 29.38 C 49.39 23.97 43.97 18.73 38.68 13.37 C 37.78 12.17 35.80 10.85 36.74 9.13 C 38.49 6.44 40.81 4.12 43.40 2.24 Z" />
<path fill="#00a652" opacity="1.00" d=" M 36.17 16.19 C 42.37 21.60 47.81 27.80 53.84 33.39 C 50.98 35.34 47.82 36.89 45.37 39.39 C 42.73 41.86 41.10 45.14 39.15 48.13 C 33.42 42.18 27.34 36.56 21.75 30.47 C 28.12 27.55 33.22 22.55 36.17 16.19 Z" />
<path fill="#00a652" opacity="1.00" d=" M 14.47 31.39 C 16.51 30.37 18.26 32.08 19.57 33.44 C 25.50 39.50 31.58 45.42 37.53 51.46 C 39.38 52.93 38.84 55.75 37.18 57.13 C 35.08 59.13 33.17 62.28 30.03 62.43 C 27.07 61.15 25.19 58.26 22.85 56.13 C 17.87 50.81 12.22 46.09 7.57 40.49 C 6.97 36.36 11.68 33.70 14.47 31.39 Z" />
<path fill="#00a652" opacity="1.00" d=" M 52.36 38.37 L 53.01 38.06 C 58.84 42.83 63.58 48.79 69.27 53.72 C 73.59 58.06 78.29 62.08 82.16 66.82 C 83.91 69.45 81.29 71.83 79.52 73.52 C 77.88 74.91 76.38 77.14 74.06 77.23 C 70.77 75.61 68.61 72.48 65.96 70.04 C 58.71 62.55 50.98 55.51 44.01 47.79 C 44.90 43.50 48.81 40.54 52.36 38.37 Z" />
<path fill="#00a652" opacity="1.00" d=" M 7.58 73.82 C 7.71 71.29 6.50 67.31 10.03 66.77 C 18.01 66.45 26.01 66.79 34.00 66.63 C 36.46 66.74 39.18 66.22 41.37 67.65 C 41.84 69.64 41.77 71.71 41.89 73.74 C 30.46 73.86 19.02 73.73 7.58 73.82 Z" />
<path fill="#00a652" opacity="1.00" d=" M 0.00 76.85 C 16.23 77.01 32.48 76.50 48.70 77.14 C 48.68 79.43 48.68 81.71 48.68 84.00 L 0.00 84.00 L 0.00 76.85 Z" />
</g>
</svg>
