<?xml version="1.0" encoding="UTF-8" ?>
<!DOCTYPE svg PUBLIC "-//W3C//DTD SVG 1.1//EN" "http://www.w3.org/Graphics/SVG/1.1/DTD/svg11.dtd">
<svg width="81pt" height="84pt" viewBox="0 0 81 84" version="1.1" xmlns="http://www.w3.org/2000/svg">
<g id="#ffffffff">
</g>
<g id="#00a652ff">
<path fill="#00a652" opacity="1.00" d=" M 19.31 3.17 C 23.23 2.25 27.29 0.54 31.36 1.71 C 37.52 3.23 43.70 4.73 49.81 6.44 C 50.01 11.37 47.84 15.90 46.13 20.40 C 35.40 20.50 24.67 20.39 13.94 20.46 C 12.38 20.33 9.88 20.89 9.58 18.72 C 8.42 14.87 6.55 11.05 6.56 6.98 C 10.48 4.83 15.06 4.41 19.31 3.17 M 21.51 8.61 C 21.44 9.91 21.37 11.21 21.34 12.51 C 25.37 13.60 29.79 13.81 33.86 12.88 C 36.40 12.57 35.97 8.64 33.67 8.43 C 29.64 7.93 25.54 8.14 21.51 8.61 Z" />
<path fill="#00a652" opacity="1.00" d=" M 16.84 25.40 C 24.60 25.35 32.36 25.22 40.11 25.48 C 38.64 27.59 36.83 29.96 34.00 30.03 C 30.02 30.37 25.99 30.43 22.02 29.95 C 19.51 29.67 17.53 27.79 16.84 25.40 Z" />
<path fill="#00a652" opacity="1.00" d=" M 6.45 30.03 C 6.09 27.31 8.84 25.93 10.99 25.20 C 12.83 29.60 15.97 34.22 21.17 34.66 C 26.30 34.94 31.52 35.19 36.61 34.43 C 41.29 33.44 43.68 28.90 45.89 25.13 C 47.92 26.07 50.40 27.31 49.83 30.01 C 50.45 32.97 47.73 34.33 45.54 35.42 C 45.15 39.70 44.65 44.31 41.83 47.77 C 39.80 50.50 36.43 52.37 35.78 55.96 C 34.99 59.34 32.31 61.80 29.63 63.77 C 27.28 65.29 25.46 62.47 23.92 61.10 C 20.60 58.31 21.03 53.18 17.40 50.61 C 13.01 47.05 10.84 41.45 11.38 35.86 C 9.28 34.45 5.93 33.16 6.45 30.03 Z" />
<path fill="#00a652" opacity="1.00" d=" M 55.61 30.42 C 56.90 30.41 58.19 30.41 59.49 30.42 C 59.80 38.53 60.19 46.64 60.33 54.76 C 61.62 54.69 62.91 54.63 64.20 54.56 C 64.77 52.97 65.36 51.39 65.96 49.81 C 66.66 49.93 68.05 50.19 68.75 50.32 C 69.14 51.60 69.51 52.89 69.88 54.18 C 71.40 54.75 72.92 55.33 74.43 55.92 C 74.36 61.26 74.80 66.62 74.28 71.93 C 73.12 74.23 70.99 75.85 69.85 78.15 C 69.44 80.08 69.34 82.05 69.13 84.00 L 55.50 84.00 C 55.48 81.64 55.50 79.29 55.51 76.93 C 55.30 78.62 55.12 80.32 54.94 82.02 C 54.82 80.70 54.65 79.40 54.44 78.10 C 53.52 75.49 50.34 73.96 50.38 70.99 C 50.20 65.87 50.37 60.74 50.44 55.61 C 51.85 55.17 53.26 54.73 54.68 54.31 C 54.97 46.35 54.05 38.29 55.61 30.42 M 58.22 65.26 C 55.73 67.61 59.64 70.04 62.01 69.41 C 64.92 70.27 69.13 67.35 65.96 64.65 C 63.46 64.58 60.29 63.64 58.22 65.26 Z" />
<path fill="#00a652" opacity="1.00" d=" M 1.65 65.23 C 2.16 59.16 7.97 54.62 13.88 54.59 C 15.70 55.57 15.95 57.78 16.81 59.47 C 18.36 63.80 22.99 65.81 25.46 69.44 C 25.96 74.27 25.55 79.15 25.65 84.00 L 1.41 84.00 C 1.71 77.75 1.29 71.48 1.65 65.23 M 8.34 70.98 C 8.66 71.88 8.99 72.78 9.32 73.68 C 12.25 74.10 15.23 74.05 18.17 73.76 C 18.22 72.38 18.98 70.57 17.46 69.67 C 14.40 69.08 10.86 68.78 8.34 70.98 Z" />
<path fill="#00a652" opacity="1.00" d=" M 41.16 55.98 C 41.77 54.33 43.96 54.88 45.29 54.45 C 45.69 60.81 44.98 67.22 45.65 73.56 C 47.36 77.07 50.54 79.84 50.85 84.00 L 30.65 84.00 C 30.68 79.36 30.32 74.70 30.78 70.08 C 32.13 67.46 34.92 66.00 36.84 63.83 C 39.11 61.74 39.85 58.66 41.16 55.98 Z" />
<path fill="#00a652" opacity="1.00" d=" M 78.21 63.52 C 80.30 65.40 79.80 68.22 78.31 70.29 C 78.07 68.04 78.02 65.77 78.21 63.52 Z" />
</g>
</svg>
