<?xml version="1.0" encoding="UTF-8" ?>
<!DOCTYPE svg PUBLIC "-//W3C//DTD SVG 1.1//EN" "http://www.w3.org/Graphics/SVG/1.1/DTD/svg11.dtd">
<svg width="80pt" height="84pt" viewBox="0 0 80 84" version="1.1" xmlns="http://www.w3.org/2000/svg">
<g id="#ffffffff">
</g>
<g id="#00a652ff">
<path fill="#00a652" opacity="1.00" d=" M 21.85 7.87 C 29.14 1.18 40.12 -0.49 49.36 2.63 C 60.07 6.40 67.50 17.14 67.77 28.43 C 57.20 27.80 46.59 28.31 36.00 28.14 C 28.08 28.31 20.14 27.75 12.24 28.53 C 12.46 20.71 15.90 13.00 21.85 7.87 Z" />
<path fill="#00a652" opacity="1.00" d=" M 1.64 78.83 C 9.08 79.33 16.55 79.03 24.00 79.10 C 42.13 78.93 60.28 79.46 78.41 78.82 C 78.49 80.54 78.52 82.27 78.46 84.00 L 1.40 84.00 C 1.41 82.27 1.49 80.55 1.64 78.83 Z" />
</g>
<g id="#67a585ff">
<path fill="#67a585" opacity="1.00" d=" M 12.24 28.53 C 20.14 27.75 28.08 28.31 36.00 28.14 C 46.59 28.31 57.20 27.80 67.77 28.43 L 66.65 28.89 C 48.89 28.84 31.11 29.10 13.36 28.75 L 12.24 28.53 Z" />
</g>
<g id="#d6fff4ff">
<path fill="#d6fff4" opacity="1.00" d=" M 11.73 30.05 C 12.14 29.72 12.95 29.07 13.36 28.75 C 31.11 29.10 48.89 28.84 66.65 28.89 L 67.28 30.01 C 48.77 30.49 30.24 30.41 11.73 30.05 Z" />
</g>
<g id="#66e1a3ff">
<path fill="#66e1a3" opacity="1.00" d=" M 8.90 30.81 C 9.80 30.34 10.74 30.08 11.73 30.05 C 30.24 30.41 48.77 30.49 67.28 30.01 C 68.61 29.93 69.89 30.32 71.11 30.81 C 50.37 30.69 29.64 30.66 8.90 30.81 Z" />
</g>
<g id="#01a652ff">
<path fill="#01a652" opacity="1.00" d=" M 7.23 32.88 C 7.65 32.36 8.49 31.33 8.90 30.81 C 29.64 30.66 50.37 30.69 71.11 30.81 C 71.52 31.33 72.35 32.37 72.76 32.89 C 72.41 33.52 71.70 34.77 71.35 35.40 C 69.35 35.66 67.36 35.92 65.36 36.17 C 65.46 47.93 65.37 59.69 65.41 71.46 C 67.66 71.82 70.84 70.80 72.26 73.08 C 73.24 75.21 71.00 76.95 69.00 76.63 C 50.67 76.74 32.33 76.59 13.99 76.69 C 12.34 76.67 10.66 76.70 9.03 76.39 C 6.99 75.63 7.04 72.50 9.12 71.85 C 10.92 71.49 12.77 71.54 14.59 71.45 C 14.64 59.70 14.55 47.94 14.64 36.19 C 12.68 35.95 10.72 35.64 8.76 35.40 C 8.37 34.77 7.61 33.51 7.23 32.88 M 20.33 35.94 C 20.42 47.82 20.30 59.70 20.38 71.57 C 23.46 71.56 26.54 71.56 29.62 71.57 C 29.69 59.69 29.61 47.82 29.68 35.94 C 26.56 35.74 23.44 35.74 20.33 35.94 M 35.48 35.80 C 35.34 47.71 35.35 59.62 35.47 71.53 C 38.49 71.57 41.51 71.57 44.53 71.53 C 44.65 59.62 44.65 47.71 44.53 35.81 C 41.51 35.79 38.49 35.79 35.48 35.80 M 50.32 35.94 C 50.40 47.82 50.29 59.70 50.38 71.57 C 53.46 71.56 56.55 71.55 59.63 71.57 C 59.70 59.69 59.61 47.82 59.68 35.94 C 56.56 35.75 53.44 35.75 50.32 35.94 Z" />
</g>
<g id="#98ffcaff">
<path fill="#98ffca" opacity="1.00" d=" M 1.64 78.83 C 5.39 78.06 9.20 77.71 13.02 77.71 C 30.68 77.70 48.33 77.70 65.99 77.70 C 70.15 77.67 74.32 78.01 78.41 78.82 C 60.28 79.46 42.13 78.93 24.00 79.10 C 16.55 79.03 9.08 79.33 1.64 78.83 Z" />
</g>
</svg>
