<?xml version="1.0" encoding="UTF-8" ?>
<!DOCTYPE svg PUBLIC "-//W3C//DTD SVG 1.1//EN" "http://www.w3.org/Graphics/SVG/1.1/DTD/svg11.dtd">
<svg width="84pt" height="56pt" viewBox="0 0 84 56" version="1.1" xmlns="http://www.w3.org/2000/svg">
<g id="#ffffffff">
</g>
<g id="#00a652ff">
<path fill="#00a652" opacity="1.00" d=" M 17.75 3.88 C 17.44 0.22 23.32 0.46 23.27 3.87 C 23.64 20.45 23.15 37.06 23.50 53.64 C 23.09 54.08 22.27 54.94 21.86 55.37 C 21.57 55.53 21.01 55.84 20.73 56.00 L 19.63 56.00 C 16.85 53.78 17.72 50.07 17.61 46.98 C 17.81 32.61 17.46 18.24 17.75 3.88 Z" />
<path fill="#00a652" opacity="1.00" d=" M 60.61 2.04 C 62.16 1.71 63.71 1.30 65.31 1.37 C 66.41 3.05 66.37 5.09 66.40 7.02 C 66.30 21.01 66.33 35.00 66.39 49.00 C 66.39 51.21 66.18 53.42 65.64 55.57 C 65.13 55.68 64.11 55.89 63.60 56.00 L 63.02 56.00 C 62.16 55.32 61.35 54.60 60.54 53.88 C 60.70 36.60 60.56 19.32 60.61 2.04 Z" />
<path fill="#00a652" opacity="1.00" d=" M 26.73 9.85 C 28.29 9.41 29.93 9.50 31.53 9.51 C 31.90 22.08 31.94 34.69 31.51 47.26 C 30.89 47.42 29.64 47.74 29.01 47.89 C 28.40 47.71 27.19 47.34 26.59 47.16 C 26.10 38.78 26.46 30.39 26.35 22.00 C 26.44 17.95 26.03 13.86 26.73 9.85 Z" />
<path fill="#00a652" opacity="1.00" d=" M 52.50 9.44 C 54.15 9.56 55.81 9.67 57.47 9.74 C 57.74 22.20 57.83 34.69 57.43 47.14 C 56.82 47.33 55.60 47.71 54.99 47.90 C 54.39 47.75 53.18 47.43 52.58 47.28 C 52.09 43.21 51.51 39.11 51.88 35.01 C 52.75 26.50 51.77 17.94 52.50 9.44 Z" />
<path fill="#00a652" opacity="1.00" d=" M 9.56 9.52 C 11.15 9.50 12.75 9.54 14.34 9.62 C 14.72 22.24 14.77 34.90 14.31 47.51 C 12.74 47.58 11.17 47.61 9.60 47.61 C 9.25 34.92 9.32 22.21 9.56 9.52 Z" />
<path fill="#00a652" opacity="1.00" d=" M 69.66 9.60 C 71.26 9.52 72.85 9.49 74.45 9.51 C 74.67 22.21 74.75 34.92 74.40 47.62 C 72.83 47.61 71.25 47.58 69.67 47.51 C 69.24 34.89 69.26 22.22 69.66 9.60 Z" />
<path fill="#00a652" opacity="1.00" d=" M 43.62 14.32 C 45.25 14.14 46.86 13.82 48.45 13.44 C 48.89 23.40 48.88 33.40 48.46 43.35 C 47.58 43.39 45.80 43.46 44.91 43.50 C 44.57 42.94 43.87 41.84 43.52 41.29 C 43.65 32.30 43.47 23.31 43.62 14.32 Z" />
<path fill="#00a652" opacity="1.00" d=" M 0.00 18.12 C 1.82 17.77 3.65 17.48 5.50 17.26 C 6.19 24.85 5.80 32.48 5.44 40.08 C 3.61 39.64 1.78 39.20 0.00 38.58 L 0.00 18.12 Z" />
<path fill="#00a652" opacity="1.00" d=" M 78.42 17.62 C 79.83 17.51 81.24 17.41 82.65 17.34 C 83.04 24.80 83.08 32.31 82.63 39.77 C 81.24 39.71 79.86 39.63 78.48 39.54 C 78.06 32.25 78.16 24.92 78.42 17.62 Z" />
<path fill="#00a652" opacity="1.00" d=" M 35.56 17.71 C 37.14 17.93 38.72 18.18 40.29 18.45 C 40.53 25.15 40.53 31.87 40.29 38.57 C 38.68 38.71 37.07 38.80 35.46 38.85 C 35.21 31.81 35.09 24.74 35.56 17.71 Z" />
</g>
</svg>
