<?xml version="1.0" encoding="UTF-8" ?>
<!DOCTYPE svg PUBLIC "-//W3C//DTD SVG 1.1//EN" "http://www.w3.org/Graphics/SVG/1.1/DTD/svg11.dtd">
<svg width="84pt" height="84pt" viewBox="0 0 84 84" version="1.1" xmlns="http://www.w3.org/2000/svg">
<g id="#ffffffff">
</g>
<g id="#00a652ff">
<path fill="#00a652" opacity="1.00" d=" M 0.00 6.27 C 1.71 4.27 3.42 1.79 6.20 1.32 C 9.43 0.66 12.74 0.84 16.01 0.82 C 35.03 0.88 54.05 0.83 73.07 0.84 C 75.80 1.02 78.95 0.94 81.11 2.91 C 83.12 4.64 82.89 7.52 83.10 9.92 C 83.16 23.26 83.07 36.61 83.12 49.96 C 55.41 50.05 27.71 49.98 0.00 50.00 L 0.00 6.27 M 42.39 17.37 C 41.15 18.22 39.35 19.11 39.57 20.92 C 39.42 26.02 39.61 31.13 39.52 36.23 C 44.23 39.24 48.77 42.74 54.00 44.76 C 56.88 44.16 59.22 42.23 61.73 40.81 C 64.01 39.27 66.71 38.19 68.50 36.04 C 68.77 30.36 68.62 24.66 68.48 18.97 C 63.68 16.10 59.02 12.97 54.03 10.44 C 50.12 12.70 46.23 14.99 42.39 17.37 M 15.48 16.17 C 15.46 17.51 15.44 18.84 15.43 20.18 C 20.13 20.55 24.87 20.56 29.58 20.18 C 29.58 18.85 29.57 17.52 29.56 16.19 C 24.89 15.62 20.15 15.62 15.48 16.17 M 15.58 25.75 C 15.51 27.09 15.44 28.43 15.36 29.77 C 20.08 30.43 24.87 30.38 29.59 29.83 C 29.59 28.53 29.58 27.24 29.57 25.94 C 24.93 25.40 20.24 25.49 15.58 25.75 M 15.50 35.57 C 15.48 36.95 15.45 38.32 15.42 39.69 C 20.13 40.13 24.89 40.18 29.60 39.64 C 29.56 38.30 29.53 36.96 29.51 35.62 C 24.85 35.22 20.17 35.26 15.50 35.57 Z" />
<path fill="#00a652" opacity="1.00" d=" M 46.89 20.63 C 49.25 18.98 51.70 17.44 54.13 15.88 C 56.60 17.40 59.04 18.96 61.41 20.63 C 58.98 22.00 56.72 23.76 54.06 24.64 C 51.51 23.60 49.24 22.02 46.89 20.63 Z" />
<path fill="#00a652" opacity="1.00" d=" M 44.53 24.94 C 46.91 26.31 49.28 27.71 51.67 29.06 C 51.65 32.07 51.64 35.09 51.59 38.10 C 49.21 36.63 46.81 35.19 44.42 33.75 C 44.46 30.81 44.47 27.87 44.53 24.94 Z" />
<path fill="#00a652" opacity="1.00" d=" M 56.46 29.21 C 58.88 27.80 61.28 26.35 63.73 24.97 C 64.18 27.89 64.34 30.85 63.95 33.79 C 61.45 35.22 58.97 36.69 56.50 38.17 C 56.47 35.18 56.47 32.19 56.46 29.21 Z" />
<path fill="#00a652" opacity="1.00" d=" M 0.00 54.63 C 27.76 54.72 55.51 54.57 83.27 54.71 C 82.69 57.44 83.33 60.96 80.88 62.90 C 79.01 64.54 76.38 64.41 74.06 64.48 C 52.01 64.38 29.96 64.50 7.92 64.42 C 4.32 64.77 1.95 61.77 0.00 59.23 L 0.00 54.63 Z" />
<path fill="#00a652" opacity="1.00" d=" M 30.01 69.56 C 38.01 69.57 46.01 69.57 54.01 69.56 C 54.18 70.93 54.34 72.31 54.50 73.69 C 57.37 74.38 60.77 74.82 62.59 77.46 C 64.04 79.31 63.43 81.83 63.55 84.00 L 20.22 84.00 C 20.50 81.61 20.03 78.79 21.85 76.89 C 23.78 74.71 26.84 74.36 29.51 73.70 C 29.67 72.32 29.84 70.94 30.01 69.56 Z" />
</g>
</svg>
